/* XPM */
static char *_9cc09547a284f0db433508a0074b8e6[] = {
/* columns rows colors chars-per-pixel */
"93 20 16 1 ",
"  c black",
". c gray15",
"X c gray26",
"o c #585858",
"O c gray42",
"+ c gray49",
"@ c #8D8D8D",
"# c gray61",
"$ c #AAAAAA",
"% c gray72",
"& c #C5C5C5",
"* c gray82",
"= c #DDDDDD",
"- c #E9E9E9",
"; c #F4F4F4",
": c gray100",
/* pixels */
"                                                                                             ",
"                                                                                             ",
"                                                                                             ",
"                                                                                             ",
"                             o*::-#                                                          ",
"                            .;:::::X                                                         ",
"                            #:&  o#   -=                    %:.                              ",
"                            $:+       ;=                    &:.                              ",
"                            +:-@      ;:::o X*::*o   $=O;;. &:::#                            ",
"                             #:::$    ;:::o +::::-   &:;:;. &:::#                            ",
"                               $-:=   ;=        &:O  &:*.   &:.                              ",
"                                 *:@  ;=    X&::::+  &:O    &:.                              ",
"                                 @:#  ;=    =;o #:+  &:o    &:.                              ",
"                                .*:@  ;-    ;;.X=:+  &:o    &:o                              ",
"                            *:::::=   -:::X *:::-:+  &:o    %:::@                            ",
"                            o&:::&.   o=::X X-:%o:O  %;.    .*::@                            ",
"                                                                                             ",
"                                                                                             ",
"                                                                                             ",
"                                                                                             "
};
