/* XPM */
static char *_ab0f655f1ae494380bc3adfe7fd97f0[] = {
/* columns rows colors chars-per-pixel */
"93 20 16 1 ",
"  c black",
". c gray15",
"X c gray26",
"o c #585858",
"O c gray42",
"+ c gray49",
"@ c #8D8D8D",
"# c gray61",
"$ c #AAAAAA",
"% c gray72",
"& c #C5C5C5",
"* c gray82",
"= c #DDDDDD",
"- c #E9E9E9",
"; c #F4F4F4",
": c gray100",
/* pixels */
"                                                                                             ",
"                                                                                             ",
"                                                                                             ",
"        =-::;*+         $*.                                                                  ",
"        :*OO+&:*.      O:O                                                                   ",
"        :%    O:&      -@                                                                    ",
"        :%     $:o                                                                           ",
"        :%     o:#   .&;;&.   #=+-:% O=:=o    #=:;%.   %*O-%  %*O-%   .&;;&.   %*O-%         ",
"        :%      :%  .-*O+-*   #:-##:*;#@-;.   $@O@;%   %-:%O  %-:%O  .-*O+-*   %-:%O         ",
"        :%      :%  $;.  O:O  #:O  &:O  O:+       %;   %:@    %:@    $;.  O:O  %:@           ",
"        :%     .:$  =*OOOO:#  #:   #:    :#   .#=;::   %:.    %:.    =*OOOO:#  %:.           ",
"        :%     O:+  :::::::#  #:   #:    :#  .-;#O%:   %:     %:     :::::::#  %:            ",
"        :%     &:.  ;$        #:   #:    :#  #:X  #:   %:     %:     ;$        %:            ",
"        :%    @:#   &-        #:   #:    :#  %:   &:   %:     %:     &-        %:            ",
"        :*OO@*:&    o;=+O+#   #:   #:    :#  +:$O$::   %:     %:     o;=+O+#   %:            ",
"        -:::-&O      X&;:-%   #:   #:    :#   #;;&@:.  %:     %:      X&;:-%   %:            ",
"                                                                                             ",
"                                                                                             ",
"                                                                                             ",
"                                                                                             "
};
