/* XPM */
static char *_f18b81c401c482fbf1e21934f2d5520[] = {
/* columns rows colors chars-per-pixel */
"93 20 16 1 ",
"  c black",
". c gray15",
"X c gray26",
"o c #585858",
"O c gray42",
"+ c gray49",
"@ c #8D8D8D",
"# c gray61",
"$ c #AAAAAA",
"% c gray72",
"& c #C5C5C5",
"* c gray82",
"= c #DDDDDD",
"- c #E9E9E9",
"; c #F4F4F4",
": c gray100",
/* pixels */
"                                                                                             ",
"                                                                                             ",
"                                 $@             .ooO@#X o$                                   ",
"                                 :@  #;;;;;;  O::;:=$@o #;                                   ",
"                              @==:-==X@@@@$:      :@    #;                                   ",
"                              o##:%#@     @:  #;;;::;;- #;                                   ",
"                                 :@       @:  X@@@:$@@O*::;;;;                               ",
"                              @##:%##XO@@@$:   ;;;::;;#+&:##%:                               ",
"                              ===:-==+::;;::   :$o:$o-$ #;  +:                               ",
"                               . :@   :@  X$   ::;::;:$ #=  #;                               ",
"                               :@:@   :@       :$o:$o-$ $*  #;                               ",
"                              .:O:::: :@   o#  ::;::;:$ &&  $;                               ",
"                              o:@:$oX :@   @:  Xoo:$oo. -#  $=                               ",
"                              O:&:@   :*$$$== X::::::::#:o  &=                               ",
"                              @:::@   @====*o  ooo:$oo@$-   =&                               ",
"                              &*#:*@Ooooooooo O$&*::::::#  X;$                               ",
"                             .;@ O*:::::::::- +*%$@@o.==.::::o                               ",
"                              #.    .ooooooo.         .X o@@.                                ",
"                                                                                             ",
"                                                                                             "
};
